<svg xmlns="http://www.w3.org/2000/svg" width="128" height="128" viewBox="0 0 128 128">
  <defs>
    <linearGradient id="sky" x1="0" y1="0" x2="0" y2="1">
      <stop offset="0" stop-color="#1b3a2a"/>
      <stop offset="1" stop-color="#2f5d38"/>
    </linearGradient>
    <linearGradient id="stone" x1="0" y1="0" x2="0" y2="1">
      <stop offset="0" stop-color="#e8c56a"/>
      <stop offset="1" stop-color="#b98c3e"/>
    </linearGradient>
  </defs>
  <rect width="124" height="124" x="2" y="2" fill="url(#sky)" stroke="#122619" stroke-width="4" rx="18"/>
  <circle cx="94" cy="34" r="14" fill="#f5d97a" opacity="0.9"/>
  <!-- stepped temple pyramid -->
  <g stroke="#5c4318" stroke-width="2" fill="url(#stone)">
    <rect x="24" y="86" width="80" height="16" rx="2"/>
    <rect x="34" y="70" width="60" height="16" rx="2"/>
    <rect x="44" y="54" width="40" height="16" rx="2"/>
    <rect x="54" y="38" width="20" height="16" rx="2"/>
  </g>
  <rect x="59" y="90" width="10" height="12" fill="#3a2c12"/>
  <!-- jungle canopy silhouettes -->
  <g fill="#173523">
    <ellipse cx="16" cy="104" rx="22" ry="14"/>
    <ellipse cx="112" cy="106" rx="24" ry="15"/>
    <ellipse cx="30" cy="114" rx="26" ry="12"/>
    <ellipse cx="98" cy="116" rx="28" ry="13"/>
  </g>
  <!-- river -->
  <path d="M2 118c30-8 60 6 94-4 12-3 22-2 30 2v6a4 14 0 0 1-14 4H16a14 14 0 0 1-14-14z" fill="#3d7ea6" opacity="0.95"/>
</svg>
